<svg id="Layer_1" data-name="Layer 1" xmlns="http://www.w3.org/2000/svg" xmlns:xlink="http://www.w3.org/1999/xlink" width="500" height="500" viewBox="0 0 500 500"><defs><style>.cls-1{fill:url(#linear-gradient);}</style><linearGradient id="linear-gradient" x1="15" y1="250" x2="485" y2="250" gradientUnits="userSpaceOnUse"><stop offset="0" stop-color="#c98e37"/><stop offset="0.107" stop-color="#744b22"/><stop offset="0.2012" stop-color="#a7732b"/><stop offset="0.3" stop-color="#f9e288"/><stop offset="0.41" stop-color="#e4a14a"/><stop offset="0.49" stop-color="#fae987"/><stop offset="0.59" stop-color="#d4a349"/><stop offset="0.67" stop-color="#fbe38a"/><stop offset="0.79" stop-color="#cd9c4d"/><stop offset="0.87" stop-color="#f9e684"/><stop offset="0.95" stop-color="#bb8136"/><stop offset="1" stop-color="#4c3112"/></linearGradient></defs><title>Empire Tech Logo_outline</title><path class="cls-1" d="M250,353.774l7.9346,37.1607,37.7938-3.9371-32.89,19.03,15.4234,34.7274L250,415.3549l-28.2619,25.4,15.4234-34.7274-32.89-19.03,37.794,3.9371ZM227.2451,119.2577c1.1269,6.3877,2.7788,12.6749,3.947,19.0676,1.1978,6.5542,3.1671,12.9731,4.2334,19.5429a4.0811,4.0811,0,0,0,.6209,1.8h27.463c3.2807-15.2146,6.52-30.1245,9.7029-45.0445,3.2719-15.3345,6.46-30.6868,9.7607-46.0148a4.0045,4.0045,0,0,0-1.44-4.3831c-3.9775-3.5765-7.7507-7.3795-11.6165-11.0809-6.6318-6.3505-13.2725-12.6917-20.0677-19.188C239.3919,44.0326,229.1205,54.04,218.6888,63.878a5.4126,5.4126,0,0,0-1.7442,5.7932C220.4543,86.1838,224.31,102.6228,227.2451,119.2577Zm70.1525,40.4106,12.0593-19.5654q1.8322-3.1677,3.6524-6.3421c4.0765-7.1289,8.7716-14.2588,13.4479-21.4021l12.2477-19.8709c-3.9929-4.3595-10.1312-8.6527-14.1983-13.1388-12.9637,26.969-25.7508,53.57-38.6088,80.3193Zm-90.0824-29.3422c3.5128,9.8207,7.1022,19.6119,10.6362,29.3422h12.74c-9.4428-30.914-18.8428-61.688-28.328-92.7417-3.8336,3.59-7.4168,7.1032-11.1869,10.4029-1.5971,1.3979-1.8835,2.5435-1.1416,4.5892C195.8784,98.0242,201.5448,114.1939,207.3152,130.3261Zm74.1513,29.3422a6.95,6.95,0,0,0,.3092-.7431c9.5278-26.545,19.1755-53.0469,28.8665-79.75L297.4612,66.81c-9.6556,31.0657-19.2219,61.8433-28.8619,92.8587Zm-159.199,76.3071a61.1588,61.1588,0,0,1-11.3431-25.8919L15,178.0252c2.2189,12.33,19.7279,29.3456,35.7551,35.0163C57.9078,215.7539,105.5,231.5353,122.2675,235.9754ZM162.114,94.05l40.4445,65.6182h10.8584c-12.73-26.7439-25.363-53.2826-38.1814-80.2112-4.1656,4.5938-9.39,8.665-13.9868,13.0814C161.2531,92.58,161.5582,93.11,162.114,94.05ZM277.4157,194.39c1.2057-.9728,1.5031-3.11,2.2175-4.7079a1.6839,1.6839,0,0,0,.06-.3669h-59.652c.6022,1.4123,1.2317,2.6824,1.6812,4.0061a2.2386,2.2386,0,0,0,.67,1.0687ZM67.592,262.4756c8.9384,7.44,18.7527,13.5127,28.8028,19.2188-5.435-5.8644-8.9081-11.9395-9.9055-17.4244l-.3092-1.7c-.4976-.165-.9352-.3126-1.3078-.4409l-.1329-.0475c-8.4939-3.1356-17.9818-9.5507-26.0308-17.6-3.5171-3.5171-8.8838-9.5038-12.2784-16.2329A32.212,32.212,0,0,0,49.4591,240.17C53.6523,249.1469,60.0866,256.2283,67.592,262.4756Zm16.4549-68.2687,23.0913,7.7171-1.2754-5.297,11.5684,4.3818c8.9985,3.4083,18.336,6.8625,27.5042,10.1946a185.5418,185.5418,0,0,1,34.7834-56.7406c1.049-1.1769,2.1127-2.3412,3.1-3.4342-3.0919-3.2541-5.548-1.47-7.6727.7489-17.6007-31.4088-18.533-64.81-12.5476-99.4653a17.5066,17.5066,0,0,0-2.1348.9721c-1.1076.7485-2.2163,1.5087-3.2427,2.3624C143.2681,67.2481,137.5731,82.4857,137.52,100.25c-.0469,15.8586,1.4541,31.5045,6.0467,46.757a.9569.9569,0,0,1-.026,1.2889c-.159-.3468-.2888-.63-.419-.9119-11.8145-19.8576-17.4746-41.1653-14.7929-64.8325A42.7354,42.7354,0,0,0,117.26,92.3146a27.7983,27.7983,0,0,0-6.24,13.6461c-1.3217,8.9057.2273,17.5465,2.2836,26.123a120.5166,120.5166,0,0,0,14.6172,35.7035,3.2261,3.2261,0,0,1,1.1048,1.77.9332.9332,0,0,1,.4638,1.247l.4118.0877q-.083.1551-.1658.3105-.1251-.1965-.25-.3931-.4317-.456-.8652-.91-.6277-.7821-1.2535-1.5651c-16.7214-17.1729-24.3347-38.0216-24.6655-62.4791-7.7335,7.09-13.408,14.5438-13.8922,24.7713-.4286,9.06,2.25,17.6012,5.3442,25.967,5.6786,15.3516,14.459,28.8692,24.9053,41.3691.625.7475,1.1627,1.5678,1.741,2.3545-21.0856-17.168-34.3764-38.9027-38.7258-65.926-11.414,11.053-13.7537,31.2312-5.97,46.212Q79.767,187.6528,84.0469,194.2069ZM64.7554,169.0515a48.2936,48.2936,0,0,0-6.2986,13.3212q-.4854,1.5084-.8323,3.0037L74.8687,191.14A111.2512,111.2512,0,0,1,64.7554,169.0515Zm202.26,101.4452c.9865,1.48,3.2055,5.6723,4.192,7.1522-5.4249,8.1376-11.8363,13.0689-21.2063,20.22-8.8781-6.657-16.7679-13.0689-22.44-20.713,1.234-2.4667,5.4246-5.9182,6.6589-8.1373-4.44,2.4649-12.33,1.7258-16.0291-3.9468,4.9318-1.2323,12.33-6.164,13.5627-10.3563,1.48-6.4119,3.4532-14.5488,5.1789-22.9324.739-2.7124.246-6.1656-1.48-6.4117-2.2191-1.2321-7.1508-1.9729-9.1241,3.2062-7.3983-4.4383-10.1107-9.1241-8.6307-17.2617A32.9339,32.9339,0,0,1,218.93,206.63a44.6091,44.6091,0,0,1,13.81-.9849c2.7124-1.9733,6.4114-2.96,11.343-1.9733a50.079,50.079,0,0,1,22.9325,10.3565c5.9179,5.6707,12.33,14.7946,14.7963,23.6727-2.22,0-5.4249-1.48-9.1242-2.2189,1.9717,3.9448,4.6841,17.7533,4.4383,22.1931,0,2.4649,3.4516,5.4246,5.4249,6.9033C279.0988,269.5115,275.6456,275.1825,267.015,270.4967Zm-20.7135-41.6738c0-3.9448-6.657-19.2329-11.0954-20.9588,0,0-1.48.7391,0,2.4649,1.7257,1.9734,8.3829,18.4939,8.3829,18.4939l-2.7124,6.1659-1.2321,8.6309,2.958-8.1376S246.3015,232.5221,246.3015,228.8229Zm10.3567-11.8364c-3.9448-2.2194-7.1505-4.4381-9.37-4.4381s-2.7125.7408-2.7125.7408l4.1926,2.9583ZM337.4355,52.2271a27.5791,27.5791,0,0,1,8.499,6.1109c10.4271,10.3911,15.7547,22.92,16.3912,37.7085a159.8683,159.8683,0,0,1-4.1123,44.68c-.6417,2.6584-1.5822,5.2447-2.1425,7.9283,12.1069-20.149,18.4972-41.6992,15.766-65.938a36.2557,36.2557,0,0,1,8.8277,7.1273,29.2634,29.2634,0,0,1,8.7536,22.5775c-.7854,19.7774-6.7992,37.8839-17.0654,54.6829-.4474.7321-.8777,1.4746-1.3136,2.2129-.1646.2475-.777.3609-.3991.7578.26.2732.6776.0767.9032-.28,17.15-17.6253,25.6312-38.8037,25.8162-63.4318,9.91,7.5922,15.5993,18.758,13.4842,31.57-3.4261,20.7541-12.8746,38.666-25.8782,54.9054-1.8453,2.3045-3.6685,4.6265-5.502,6.94q.2908.2934.5812.5865c3.5817-3.5171,7.2029-6.9953,10.7344-10.5624A78.0408,78.0408,0,0,0,400.78,177.6187a136.5674,136.5674,0,0,0,7.8353-13.3626A121.2742,121.2742,0,0,0,414.5,149.6254c1.7009-4.8829,2.5061-9.9851,3.56-15.5791,8.4153,10.9625,13.3981,22.2664,9.5172,35.9447a88.37,88.37,0,0,1-11.3505,24.0679l-23.612,7.8709,1.2855-5.34-11.5925,4.4246c-8.7147,3.3263-17.95,6.7543-27.1365,10.0968a182.4982,182.4982,0,0,0-9.645-20.7419c-7.7789-14.3246-16.9266-27.73-28.43-39.2552,3.1171-3.2153,5.7034-1.6876,7.9726.7192C342.5411,120.3163,343.38,86.89,337.4355,52.2271Zm41.3107,148.5278a1.3988,1.3988,0,0,0,.0839.381q.2212-.12.4426-.2388a1.5185,1.5185,0,0,0-.3061-.2626C378.92,200.6114,378.7482,200.708,378.7462,200.7549Zm46.4858-9.6982,17.2-5.7336a53.57,53.57,0,0,0-7.0167-16.4237,103.2714,103.2714,0,0,1-9.3681,20.788Q425.6445,190.3768,425.232,191.0567ZM328.9094,307.486c14.7951-3.945,39.7-12.0838,46.3579-14.3032,14.0575-5.1774,29.8389-19.2329,31.5648-30.083L348.39,281.1006C344.9369,288.2514,338.0338,298.1163,328.9094,307.486ZM449.7379,218.96,370.09,247.5645c-3.2062,7.6438-9.6174,17.2615-15.7813,25.8921,16.52-4.4383,51.2907-15.0423,58.4414-17.5087C428.7774,250.0309,447.5188,231.29,449.7379,218.96ZM298.58,237.701c-8.8784,26.8775-25.1533,48.331-48.5788,66.3318-23.6729-18.0008-39.9479-39.4543-48.8257-66.3318-17.5076-5.6721-53.5087-18.2478-86.06-30.5777,3.206,13.3164,11.8366,27.1245,19.974,38.2222,9.1239,4.9314,22.44,10.3563,40.4411,18.2479-10.6039-1.48-26.8789-6.4117-34.5229-10.111,1.9736,9.8635,12.5771,23.18,19.7279,32.7971,10.6023,3.9453,25.399,9.1227,44.1384,14.7948-10.1087,1.2326-26.8767-3.9448-38.7133-6.4112,20.96,22.6862,52.2758,37.481,83.84,45.1265,31.317-7.6455,62.6343-22.44,83.5931-45.1265-11.8364,2.4664-28.6026,7.6438-38.4678,6.4112,18.7416-5.6721,33.29-10.8495,43.8927-14.7948,7.1525-9.6172,17.7548-22.9336,19.9739-32.7971-7.89,3.6993-24.1645,8.6311-34.7687,10.111,18-7.8916,31.317-13.3165,40.4411-18.2479,8.3832-11.0977,16.7682-24.9058,19.974-38.2222C352.3351,219.4532,316.0865,232.0289,298.58,237.701Zm-70.7337-60.2339a2.6217,2.6217,0,0,1-2.4018-1.2427c-1.6067-2.2055-3.2244-4.4033-4.8025-6.6292a2.269,2.269,0,0,0-.8862-.7861h-11.462l10.5072,17.0469a2.063,2.063,0,0,0,1.6322.4284q29.4765.0014,58.9528.025a2.4621,2.4621,0,0,0,2.0442-.9748c.0533-.0613.1072-.1223.16-.1833l10.0727-16.3422H279.558a1.54,1.54,0,0,0-.2475.2794c-1.6449,2.28-3.205,4.6274-4.9691,6.81-.4481.5546-.625,1.5748-1.7946,1.5565-4.206-.0658-8.4137-.0259-12.7-.0259l2.0282-8.62H237.717c.6948,2.88,1.3746,5.6971,2.08,8.62C235.7174,177.4293,231.78,177.3688,227.8458,177.4671ZM124.7324,293.1828c6.4117,2.2194,31.3173,10.3582,46.1138,14.3032-9.1241-9.37-16.0291-19.2346-19.4823-26.3854L92.9219,263.1C94.8953,273.95,110.4314,288.0054,124.7324,293.1828ZM147.4433,418.168c-.519-.95-.9961-1.8239-1.4447-2.6451-.5728-.3054-.8165.5946-1.7889-.21-2.8948-4.8209-6.1695-10.1489-9.2873-15.5676-.6607-1.1483-1.1393-1.3549-2.279-.82-2.192,1.0286-4.4405,1.9373-6.7379,2.9272,6.007,7.57,11.9689,15.0837,18.06,22.76l8.9679-6.0107c4.5712,6.8406,9.0792,13.587,13.5872,20.3334q.3656-.1968.7312-.3935-4.2283-12.7053-8.4747-25.464ZM50.016,218.96c2.2194,12.33,20.9605,31.071,36.988,36.988,7.1524,2.4664,41.9212,13.07,58.6892,17.5087-6.4117-8.6306-12.8232-18.2483-16.0289-25.8921ZM279.5918,364.6952l10.2689,21.3353,6.1779.8977-3.911,3.8121,16.0674,33.3834a225.2946,225.2946,0,0,0,16.0289-18.0025c-7.3983-15.0423-22.932-39.4543-34.5228-58.935A116.9815,116.9815,0,0,1,279.5918,364.6952Zm-48.2,71.1788-3.5834,17.1A186.818,186.818,0,0,0,250.494,466.043a186.9233,186.9233,0,0,0,22.6866-13.0689L269.72,436.4579,250,426.0908Zm4.8482-54.5135a98.09,98.09,0,0,1-11.1443-11.734l-6.4478,15.1676,17.1258-2.4886Zm-9.2589,28.0058-13.2773-12.942-14.5,34.1089a199.3583,199.3583,0,0,0,20.96,17.2618l1.8463-6.9889-.4635.2434Zm170.46-121.9234a69.4517,69.4517,0,0,1-19.9134,11.8755l-.192.0673c-.1566.0521-8.5674,2.852-18.9953,6.1493A111.105,111.105,0,0,1,346.6421,321.35c-4.8007,5.6034-10.5141,10.121-15.7446,15.1987-3.9826,3.8662-8.9851,6.7849-11.7833,11.9534.7694.9719,1.481,1.97,2.2973,2.8741a20.3774,20.3774,0,0,0,2.6658,2.5952c2.2984,1.7574,5.13,2.7264,7.2851.2071.8539-.9983,1.73-1.1276,3.2115-.79,5.8091,1.3239,11.1991,3.8336,16.8561,5.5436,10.727,3.2422,21.4139,4.7625,32.0917-.53a54.4634,54.4634,0,0,0,17.9857-14.4644c-4.1549-.3571-8.2412-.1509-12.2968-.4147-4.0928-.2665-8.1606-.9594-12.2292-1.5375-5.22-.7413-9.4278-2.242-11.1739-3.8906,5.7512-.3854,11.4543.5964,17.1887.6171,7.7721.0283,15.5762-.2727,22.8394-3.3043,11.635-4.8566,19.5023-13.871,25.6591-24.5288,1.0067-1.7427,2.59-3.3085,2.5375-5.5609a107.071,107.071,0,0,1-25.9524,7.8032c-5.2983.8241-10.5855,1.7751-16.02,1.134a5.571,5.571,0,0,1,1.7729-.8323,130.5876,130.5876,0,0,0,36.5862-17.5757c9.1115-6.411,16.1041-14.41,18.3264-25.7463.9619-4.9061,1.8273-9.8313,1.2848-15.2862C434.5784,269.784,418.277,282.5793,397.4405,287.4429ZM155.0756,399.1148c-3.1281-10.719-6.2149-21.2964-9.3558-32.0589-3.9335.8142-7.7932,1.6134-11.8618,2.4556,5.2346,14.1119,10.4065,28.0545,15.6711,42.247,3.9-1.7107,7.72-3.3871,11.586-5.0832,2.9016,8.6263,5.7613,17.1541,8.65,25.6722.2415.7122.2417,1.9057,1.6783,1.2713-.025-13.6489-1.1737-27.2751-1.4313-41.24Zm210.002.63c-3.1178,5.4187-6.3928,10.7467-9.2873,15.5676-.9727.8046-1.2161-.0954-1.7891.21-.4484.8212-.9255,1.6951-1.4445,2.6451l-11.3342-5.09q-4.2554,12.786-8.4747,25.464l.7312.3935c4.508-6.7464,9.016-13.4928,13.5872-20.3334l8.9679,6.0107,18.06-22.76c-2.2974-.99-4.5459-1.8986-6.7382-2.9272C366.2169,398.39,365.7381,398.597,365.0776,399.7453Zm-87.7155,34.942,3.4626,13.1077a199.7255,199.7255,0,0,0,20.96-17.2618l-14.79-34.79-13.9762,13.6232Zm5.0438-49.74-6.5128-15.3206a99.8748,99.8748,0,0,1-11.8246,12.3583l.1581.3207ZM388.83,210.0835a63.5919,63.5919,0,0,1-11.0956,25.8919c16.5221-4.44,64.1141-20.2215,71.5107-22.9339,15.7816-5.6707,33.5361-22.6864,35.7553-35.0163ZM211.2014,385.876l10.195-21.1808a116.8457,116.8457,0,0,1-10.111-17.509c-11.5888,19.4807-27.1244,43.8927-34.5227,58.935a225.6662,225.6662,0,0,0,16.0289,18.0025l15.753-32.7279-4.5832-4.4676Zm-32.3863-40.0834c-3.6641-3.3662-7.2245-6.85-10.9661-10.127-9.6169-8.4235-18.651-17.3721-25.3375-28.38q-.5269-.8677-1.03-1.7434c-8.3027-2.6317-15.583-5.0371-18.8877-6.181l-.0872-.0308a68.565,68.565,0,0,1-19.8291-11.697c-20.9187-5.107-37.1131-17.8518-52.4971-32.6077,0,2.9779-.14,5.4364.0238,7.8749.8155,12.1874,5.792,22.2246,15.4513,29.8881,12.0237,9.54,25.6794,15.8343,40.172,20.5151a4.5119,4.5119,0,0,1,2.7129,1.3794,107.7965,107.7965,0,0,1-43.2062-9.7813,79.22,79.22,0,0,0,8.5761,14.0428c6.9917,8.7654,15.0291,16.1108,26.5615,18.3432a86.922,86.922,0,0,0,24.0033,1.0538c3.1988-.271,6.44-.0444,9.6614-.0444-11.46,4.7867-23.5126,5.5-36.2971,5.6416,3.5861,3.3741,6.2447,6.82,9.8416,9.3421,7.2077,5.0541,14.8277,9.0032,23.95,8.7546a62.5439,62.5439,0,0,0,18.1008-3.491c5.0522-1.684,10.0754-3.4565,15.0978-5.2286,1.1457-.4041,2.2612-.7636,3.0878.4349,1.8429,2.6726,3.98,2.2764,6.4624.9385a21.84,21.84,0,0,0,4.42-3.5933C180.7272,349.3018,180.7722,347.5906,178.8151,345.7926Zm81.9338,29.4662a151.2059,151.2059,0,0,0,32.4054-47.3055c-14.7963,7.644-28.3587,13.0689-42.66,15.2878-14.303-2.2189-27.8652-7.6438-42.9078-15.2878a155.5356,155.5356,0,0,0,31.9859,46.6546L250,353.479Zm89.7217,36.5c5.2646-14.1925,10.4365-28.1351,15.6714-42.247-4.0688-.8422-7.9286-1.6414-11.8618-2.4556-3.1409,10.7625-6.2277,21.34-9.3558,32.0589-4.9432-2.229-9.7508-4.397-14.9366-6.7356-.2578,13.9645-1.4066,27.5907-1.4313,41.24,1.4366.6344,1.4368-.5591,1.6783-1.2713,2.8885-8.5181,5.7485-17.0459,8.65-25.6722C342.7509,408.3714,346.571,410.0478,350.4706,411.7585Zm64.544-149.6769-.1324.0473c-.3744.129-.8256.2809-1.3472.4534l-.2458,1.5447c-.9421,5.9232-4.7233,12.117-9.9442,17.7233,6.0361-3.4217,12.0127-6.9439,17.7367-10.89,9.337-6.4374,18.1315-13.4332,24.8811-22.7358a37.7474,37.7474,0,0,0,7.6121-20.4826c-3.3759,6.9347-8.924,13.135-12.5293,16.74C432.9964,252.5309,423.5085,258.946,415.0146,262.0816Z"/></svg>