<?xml version="1.0" encoding="utf-8"?>
<!-- Generator: Adobe Illustrator 23.0.1, SVG Export Plug-In . SVG Version: 6.00 Build 0)  -->
<svg version="1.1" id="Layer_1" xmlns="http://www.w3.org/2000/svg" xmlns:xlink="http://www.w3.org/1999/xlink" x="0px" y="0px"
	 viewBox="0 0 260 50" enable-background="new 0 0 260 50" xml:space="preserve">
<g>
	<g id="XMLID_57_">
		<g>
			<path id="XMLID_190_" d="M73.8,32.5H60.7c-1.2,0-2.2-0.4-3.1-1.1c-0.9-0.8-1.3-1.7-1.3-2.9v-6.9c0-1.1,0.4-2.1,1.3-2.8
				c0.9-0.8,1.9-1.2,3-1.2h13.1v2.7H60.7c-0.4,0-0.7,0.1-1.1,0.4c-0.3,0.3-0.5,0.6-0.5,0.9v2.1h14.7v2.7H59.1v2.1
				c0,0.9,0.5,1.3,1.5,1.3h13.1V32.5z"/>
			<path id="XMLID_188_" d="M100.4,32.5h-2.8V21.6c0-0.9-0.5-1.4-1.5-1.4h-1.9c-1,0-1.5,0.5-1.5,1.4l0,6.9c0,1.2-0.4,2.1-1.3,2.9
				c-0.9,0.8-1.9,1.1-3.1,1.1c-1.2,0-2.2-0.4-3.1-1.1c-0.9-0.7-1.3-1.7-1.3-2.9v-6.9c0-0.9-0.5-1.4-1.5-1.4h-1.9
				c-1,0-1.5,0.5-1.5,1.4v10.9h-2.8V21.6c0-1.2,0.4-2.1,1.3-2.9c0.9-0.8,1.9-1.1,3.1-1.1h2c1.2,0,2.2,0.4,3.1,1.1
				c0.9,0.8,1.3,1.7,1.3,2.9l0,6.9c0,0.9,0.5,1.3,1.6,1.3c1,0,1.5-0.4,1.5-1.3l0-6.9c0-1.2,0.4-2.2,1.3-2.9c0.8-0.7,1.8-1.1,3-1.1
				H96c1.2,0,2.2,0.4,3.1,1.1c0.8,0.8,1.3,1.7,1.3,2.9V32.5z"/>
			<path id="XMLID_186_" d="M121.6,22.4c0,1.2-0.4,2.2-1.3,2.9c-0.8,0.7-1.9,1.1-3.1,1.1H107v-2.7h10.2c1,0,1.5-0.4,1.5-1.3v-0.8
				c0-0.9-0.5-1.4-1.5-1.4h-11v12.2h-2.8V17.6h13.9c1.2,0,2.2,0.4,3.1,1.1c0.8,0.8,1.3,1.7,1.3,2.9V22.4z"/>
			<path id="XMLID_184_" d="M126.9,32.5h-2.8V17.5h2.8V32.5z"/>
			<path id="XMLID_182_" d="M147.8,32.5H145v-4.8c0-0.4-0.2-0.7-0.5-0.9c-0.3-0.2-0.7-0.3-1.1-0.3h-10.2v-2.7h10.2
				c1,0,1.5-0.4,1.5-1.3v-0.8c0-0.9-0.5-1.4-1.5-1.4h-11v12.2h-2.8V17.6h13.9c1.2,0,2.2,0.4,3.1,1.1c0.8,0.8,1.3,1.7,1.3,2.9v0.8
				c0,1-0.4,1.8-1.1,2.6c0.7,0.8,1.1,1.7,1.1,2.6V32.5z"/>
			<path id="XMLID_180_" d="M168.4,32.5h-13.1c-1.2,0-2.2-0.4-3.1-1.1c-0.9-0.8-1.3-1.7-1.3-2.9v-6.9c0-1.1,0.4-2.1,1.3-2.8
				c0.9-0.8,1.9-1.2,3-1.2h13.1v2.7h-13.1c-0.4,0-0.7,0.1-1.1,0.4c-0.3,0.3-0.5,0.6-0.5,0.9v2.1h14.7v2.7h-14.7v2.1
				c0,0.9,0.5,1.3,1.5,1.3h13.1V32.5z"/>
			<path id="XMLID_178_" d="M196.9,20.2h-7.3v12.3h-2.8V20.2h-7.2v-2.7h17.4V20.2z"/>
			<path id="XMLID_176_" d="M216.8,32.5h-13.1c-1.2,0-2.2-0.4-3.1-1.1c-0.9-0.8-1.3-1.7-1.3-2.9v-6.9c0-1.1,0.4-2.1,1.3-2.8
				c0.9-0.8,1.9-1.2,3-1.2h13.1v2.7h-13.1c-0.4,0-0.7,0.1-1.1,0.4c-0.3,0.3-0.5,0.6-0.5,0.9v2.1h14.7v2.7h-14.7v2.1
				c0,0.9,0.5,1.3,1.5,1.3h13.1V32.5z"/>
			<path id="XMLID_174_" d="M236.8,32.5h-13.1c-1.2,0-2.2-0.4-3.1-1.1c-0.9-0.8-1.3-1.7-1.3-2.9v-6.9c0-1.1,0.4-2.1,1.3-2.8
				c0.9-0.8,1.9-1.2,3-1.2h13.1v2.7h-13.1c-0.4,0-0.7,0.1-1.1,0.4c-0.3,0.3-0.5,0.6-0.5,1v6.9c0,0.9,0.5,1.3,1.5,1.3h13.1V32.5z"/>
			<path id="XMLID_171_" d="M241.8,32.5h-2.8V17.5h2.8V32.5z M256.3,32.5h-2.8v-6.1h-10.9v-2.7h10.9v-6.1h2.8V32.5z"/>
		</g>
	</g>
	<linearGradient id="XMLID_2_" gradientUnits="userSpaceOnUse" x1="3.6917" y1="25" x2="52.6403" y2="25">
		<stop  offset="0" style="stop-color:#C98E37"/>
		<stop  offset="0.107" style="stop-color:#744B22"/>
		<stop  offset="0.2012" style="stop-color:#A7732B"/>
		<stop  offset="0.3" style="stop-color:#F9E288"/>
		<stop  offset="0.41" style="stop-color:#E4A14A"/>
		<stop  offset="0.49" style="stop-color:#FAE987"/>
		<stop  offset="0.59" style="stop-color:#D4A349"/>
		<stop  offset="0.67" style="stop-color:#FBE38A"/>
		<stop  offset="0.79" style="stop-color:#CD9C4D"/>
		<stop  offset="0.87" style="stop-color:#F9E684"/>
		<stop  offset="0.95" style="stop-color:#BB8136"/>
		<stop  offset="1" style="stop-color:#4C3112"/>
	</linearGradient>
	<path id="XMLID_240_" fill="url(#XMLID_2_)" d="M28.2,35.8l0.8,3.9l3.9-0.4l-3.4,2l1.6,3.6l-2.9-2.6l-2.9,2.6l1.6-3.6l-3.4-2
		l3.9,0.4L28.2,35.8z M25.8,11.4c0.1,0.7,0.3,1.3,0.4,2c0.1,0.7,0.3,1.4,0.4,2c0,0.1,0,0.1,0.1,0.2h2.9c0.3-1.6,0.7-3.1,1-4.7
		c0.3-1.6,0.7-3.2,1-4.8c0-0.2,0-0.3-0.1-0.5c-0.4-0.4-0.8-0.8-1.2-1.2c-0.7-0.7-1.4-1.3-2.1-2c-1.1,1-2.2,2.1-3.2,3.1
		c-0.2,0.2-0.2,0.4-0.2,0.6C25.1,7.9,25.5,9.7,25.8,11.4z M33.1,15.6l1.3-2c0.1-0.2,0.3-0.4,0.4-0.7c0.4-0.7,0.9-1.5,1.4-2.2
		l1.3-2.1c-0.4-0.5-1.1-0.9-1.5-1.4c-1.4,2.8-2.7,5.6-4,8.4H33.1z M23.7,12.5c0.4,1,0.7,2,1.1,3.1h1.3c-1-3.2-2-6.4-3-9.7
		C22.8,6.3,22.4,6.7,22,7c-0.2,0.1-0.2,0.3-0.1,0.5C22.5,9.2,23.1,10.9,23.7,12.5z M31.4,15.6C31.5,15.6,31.5,15.5,31.4,15.6
		c1-2.8,2-5.6,3-8.4c-0.5-0.4-0.9-0.9-1.4-1.3c-1,3.2-2,6.4-3,9.7H31.4z M14.9,23.5c-0.7-1-1-1.9-1.2-2.7l-10-3.3
		c0.2,1.3,2.1,3.1,3.7,3.6C8.2,21.4,13.1,23.1,14.9,23.5z M19,8.8l4.2,6.8h1.1c-1.3-2.8-2.6-5.5-4-8.4c-0.4,0.5-1,0.9-1.5,1.4
		C18.9,8.6,19,8.7,19,8.8z M31,19.2c0.1-0.1,0.2-0.3,0.2-0.5c0,0,0,0,0,0c-2.1,0-4.1,0-6.2,0c0.1,0.1,0.1,0.3,0.2,0.4
		c0,0.1,0,0.1,0.1,0.1H31z M9.2,26.3c0.9,0.8,2,1.4,3,2c-0.6-0.6-0.9-1.2-1-1.8l0-0.2c-0.1,0-0.1,0-0.1,0l0,0
		c-0.9-0.3-1.9-1-2.7-1.8c-0.4-0.4-0.9-1-1.3-1.7c0,0.4,0.1,0.8,0.3,1.2C7.7,24.9,8.4,25.6,9.2,26.3z M10.9,19.2l2.4,0.8l-0.1-0.6
		l1.2,0.5c0.9,0.4,1.9,0.7,2.9,1.1c0.8-2.2,2.1-4.1,3.6-5.9c0.1-0.1,0.2-0.2,0.3-0.4c-0.3-0.3-0.6-0.2-0.8,0.1
		c-1.8-3.3-1.9-6.7-1.3-10.4c-0.1,0.1-0.2,0.1-0.2,0.1c-0.1,0.1-0.2,0.2-0.3,0.2c-1.5,1.2-2,2.8-2.1,4.6c0,1.7,0.2,3.3,0.6,4.9
		c0,0,0,0.1,0,0.1c0,0,0-0.1,0-0.1c-1.2-2.1-1.8-4.3-1.5-6.8c-0.5,0.3-0.8,0.6-1.2,1C14,9,13.8,9.5,13.7,10c-0.1,0.9,0,1.8,0.2,2.7
		c0.3,1.3,0.8,2.6,1.5,3.7c0.1,0,0.1,0.1,0.1,0.2c0,0,0.1,0.1,0,0.1c0,0,0,0,0,0c0,0,0,0,0,0c0,0,0,0,0,0c0,0-0.1-0.1-0.1-0.1
		c0-0.1-0.1-0.1-0.1-0.2c-1.7-1.8-2.5-4-2.6-6.5c-0.8,0.7-1.4,1.5-1.4,2.6c0,0.9,0.2,1.8,0.6,2.7c0.6,1.6,1.5,3,2.6,4.3
		c0.1,0.1,0.1,0.2,0.2,0.2c-2.2-1.8-3.6-4.1-4-6.9c-1.2,1.2-1.4,3.3-0.6,4.8C10.3,18.3,10.6,18.7,10.9,19.2z M8.9,16.6
		C8.6,17,8.4,17.5,8.2,18c0,0.1-0.1,0.2-0.1,0.3l1.8,0.6C9.5,18.2,9.2,17.4,8.9,16.6z M29.9,27.1c0.1,0.2,0.3,0.6,0.4,0.7
		c-0.6,0.8-1.2,1.4-2.2,2.1c-0.9-0.7-1.7-1.4-2.3-2.2c0.1-0.3,0.6-0.6,0.7-0.8c-0.5,0.3-1.3,0.2-1.7-0.4c0.5-0.1,1.3-0.6,1.4-1.1
		c0.2-0.7,0.4-1.5,0.5-2.4c0.1-0.3,0-0.6-0.2-0.7c-0.2-0.1-0.7-0.2-1,0.3c-0.8-0.5-1.1-1-0.9-1.8c0-0.2,0.1-0.3,0.1-0.5
		c0.4-0.1,1.1-0.2,1.4-0.1c0.3-0.2,0.7-0.3,1.2-0.2c0.8,0.2,1.6,0.4,2.4,1.1c0.6,0.6,1.3,1.5,1.5,2.5c-0.2,0-0.6-0.2-1-0.2
		c0.2,0.4,0.5,1.8,0.5,2.3c0,0.3,0.4,0.6,0.6,0.7C31.2,27,30.8,27.6,29.9,27.1z M27.8,22.8c0-0.4-0.7-2-1.2-2.2c0,0-0.2,0.1,0,0.3
		c0.2,0.2,0.9,1.9,0.9,1.9l-0.3,0.6l-0.1,0.9l0.3-0.8C27.4,23.5,27.8,23.2,27.8,22.8z M28.9,21.6c-0.4-0.2-0.7-0.5-1-0.5
		c-0.2,0-0.3,0.1-0.3,0.1l0.4,0.3L28.9,21.6z M37.3,4.4c0.4,0.2,0.6,0.4,0.9,0.6c1.1,1.1,1.6,2.4,1.7,3.9c0.1,1.6-0.1,3.1-0.4,4.7
		c-0.1,0.3-0.2,0.5-0.2,0.8c1.3-2.1,1.9-4.3,1.6-6.9c0.4,0.2,0.7,0.5,0.9,0.7c0.6,0.7,0.9,1.4,0.9,2.4c-0.1,2.1-0.7,3.9-1.8,5.7
		c0,0.1-0.1,0.2-0.1,0.2c0,0-0.1,0,0,0.1c0,0,0.1,0,0.1,0c1.8-1.8,2.7-4,2.7-6.6c1,0.8,1.6,2,1.4,3.3c-0.4,2.2-1.3,4-2.7,5.7
		c-0.2,0.2-0.4,0.5-0.6,0.7c0,0,0,0,0.1,0.1c0.4-0.4,0.8-0.7,1.1-1.1c0.4-0.4,0.7-0.8,1-1.3c0.3-0.5,0.6-0.9,0.8-1.4
		c0.2-0.5,0.4-1,0.6-1.5c0.2-0.5,0.3-1,0.4-1.6c0.9,1.1,1.4,2.3,1,3.7c-0.3,0.9-0.7,1.7-1.2,2.5L43,20l0.1-0.6l-1.2,0.5
		c-0.9,0.3-1.9,0.7-2.8,1.1c-0.3-0.7-0.6-1.5-1-2.2c-0.8-1.5-1.8-2.9-3-4.1c0.3-0.3,0.6-0.2,0.8,0.1C37.8,11.5,37.9,8,37.3,4.4z
		 M41.6,19.9C41.6,19.9,41.6,19.9,41.6,19.9C41.6,19.9,41.6,19.9,41.6,19.9C41.6,19.9,41.6,19.9,41.6,19.9
		C41.6,19.9,41.6,19.9,41.6,19.9z M46.4,18.9l1.8-0.6c-0.1-0.6-0.4-1.1-0.7-1.7c-0.3,0.8-0.6,1.5-1,2.2
		C46.5,18.8,46.4,18.8,46.4,18.9z M36.4,31c1.5-0.4,4.1-1.3,4.8-1.5c1.5-0.5,3.1-2,3.3-3.1l-6.1,1.9C38.1,29,37.3,30,36.4,31z
		 M49,21.8l-8.3,3c-0.3,0.8-1,1.8-1.6,2.7c1.7-0.5,5.3-1.6,6.1-1.8C46.8,25,48.7,23.1,49,21.8z M33.2,23.7c-0.9,2.8-2.6,5-5.1,6.9
		c-2.5-1.9-4.2-4.1-5.1-6.9c-1.8-0.6-5.6-1.9-9-3.2c0.3,1.4,1.2,2.8,2.1,4c1,0.5,2.3,1.1,4.2,1.9c-1.1-0.2-2.8-0.7-3.6-1.1
		c0.2,1,1.3,2.4,2.1,3.4c1.1,0.4,2.6,1,4.6,1.5c-1.1,0.1-2.8-0.4-4-0.7c2.2,2.4,5.4,3.9,8.7,4.7c3.3-0.8,6.5-2.3,8.7-4.7
		c-1.2,0.3-3,0.8-4,0.7c2-0.6,3.5-1.1,4.6-1.5c0.7-1,1.8-2.4,2.1-3.4c-0.8,0.4-2.5,0.9-3.6,1.1c1.9-0.8,3.3-1.4,4.2-1.9
		c0.9-1.2,1.7-2.6,2.1-4C38.8,21.8,35,23.1,33.2,23.7z M25.9,17.4c-0.1,0-0.2,0-0.3-0.1c-0.2-0.2-0.3-0.5-0.5-0.7
		c0,0-0.1-0.1-0.1-0.1h-1.2l1.1,1.8c0.1,0,0.1,0,0.2,0c2,0,4.1,0,6.1,0c0.1,0,0.2,0,0.2-0.1c0,0,0,0,0,0l1-1.7h-1.3c0,0,0,0,0,0
		c-0.2,0.2-0.3,0.5-0.5,0.7c0,0.1-0.1,0.2-0.2,0.2c-0.4,0-0.9,0-1.3,0c0.1-0.3,0.1-0.6,0.2-0.9h-2.5c0.1,0.3,0.1,0.6,0.2,0.9
		C26.7,17.4,26.3,17.4,25.9,17.4z M15.1,29.5c0.7,0.2,3.3,1.1,4.8,1.5c-1-1-1.7-2-2-2.7l-6.1-1.9C12,27.5,13.6,29,15.1,29.5z
		 M17.5,42.5c-0.1-0.1-0.1-0.2-0.2-0.3c-0.1,0-0.1,0.1-0.2,0c-0.3-0.5-0.6-1.1-1-1.6c-0.1-0.1-0.1-0.1-0.2-0.1
		c-0.2,0.1-0.5,0.2-0.7,0.3c0.6,0.8,1.2,1.6,1.9,2.4c0.3-0.2,0.6-0.4,0.9-0.6c0.5,0.7,0.9,1.4,1.4,2.1c0,0,0.1,0,0.1,0
		c-0.3-0.9-0.6-1.8-0.9-2.7C18.3,42.2,17.9,42.3,17.5,42.5z M7.3,21.8c0.2,1.3,2.2,3.2,3.9,3.9c0.7,0.3,4.4,1.4,6.1,1.8
		c-0.7-0.9-1.3-1.9-1.7-2.7L7.3,21.8z M31.2,36.9l1.1,2.2l0.6,0.1l-0.4,0.4l1.7,3.5c0.6-0.6,1.1-1.2,1.7-1.9
		c-0.8-1.6-2.4-4.1-3.6-6.1C32,35.8,31.6,36.4,31.2,36.9z M26.2,44.4l-0.4,1.8c0.7,0.5,1.5,1,2.4,1.4c0.8-0.4,1.6-0.8,2.4-1.4
		l-0.4-1.7l-2.1-1.1L26.2,44.4z M26.7,38.7c-0.4-0.4-0.8-0.8-1.2-1.2L24.9,39L26.7,38.7L26.7,38.7z M25.8,41.6l-1.4-1.3l-1.5,3.6
		c0.7,0.6,1.4,1.3,2.2,1.8l0.2-0.7l0,0L25.8,41.6z M43.5,28.9c-0.6,0.5-1.4,1-2.1,1.2l0,0c0,0-0.9,0.3-2,0.6
		c-0.3,0.6-0.8,1.1-1.2,1.6c-0.5,0.6-1.1,1.1-1.6,1.6c-0.4,0.4-0.9,0.7-1.2,1.2c0.1,0.1,0.2,0.2,0.2,0.3c0.1,0.1,0.2,0.2,0.3,0.3
		c0.2,0.2,0.5,0.3,0.8,0c0.1-0.1,0.2-0.1,0.3-0.1c0.6,0.1,1.2,0.4,1.8,0.6c1.1,0.3,2.2,0.5,3.3-0.1c0.7-0.4,1.3-0.9,1.9-1.5
		c-0.4,0-0.9,0-1.3,0c-0.4,0-0.8-0.1-1.3-0.2c-0.5-0.1-1-0.2-1.2-0.4c0.6,0,1.2,0.1,1.8,0.1c0.8,0,1.6,0,2.4-0.3
		c1.2-0.5,2-1.4,2.7-2.6c0.1-0.2,0.3-0.3,0.3-0.6c-0.9,0.4-1.8,0.7-2.7,0.8c-0.6,0.1-1.1,0.2-1.7,0.1c0.1,0,0.1-0.1,0.2-0.1
		c1.4-0.4,2.6-1,3.8-1.8c0.9-0.7,1.7-1.5,1.9-2.7c0.1-0.5,0.2-1,0.1-1.6C47.4,27.1,45.7,28.4,43.5,28.9z M18.3,40.5
		c-0.3-1.1-0.6-2.2-1-3.3c-0.4,0.1-0.8,0.2-1.2,0.3c0.5,1.5,1.1,2.9,1.6,4.4c0.4-0.2,0.8-0.4,1.2-0.5c0.3,0.9,0.6,1.8,0.9,2.7
		c0,0.1,0,0.2,0.2,0.1c0-1.4-0.1-2.8-0.1-4.3C19.3,40.1,18.8,40.3,18.3,40.5z M40.2,40.6c-0.3,0.6-0.7,1.1-1,1.6
		c-0.1,0.1-0.1,0-0.2,0c0,0.1-0.1,0.2-0.2,0.3c-0.4-0.2-0.8-0.3-1.2-0.5c-0.3,0.9-0.6,1.8-0.9,2.7c0,0,0.1,0,0.1,0
		c0.5-0.7,0.9-1.4,1.4-2.1c0.3,0.2,0.6,0.4,0.9,0.6c0.6-0.8,1.3-1.6,1.9-2.4c-0.2-0.1-0.5-0.2-0.7-0.3
		C40.3,40.5,40.2,40.5,40.2,40.6z M31,44.2l0.4,1.4c0.8-0.5,1.5-1.2,2.2-1.8L32,40.2l-1.5,1.4L31,44.2z M31.5,39.1l-0.7-1.6
		c-0.4,0.5-0.8,0.9-1.2,1.3l0,0L31.5,39.1z M42.6,20.8c-0.2,0.8-0.5,1.7-1.2,2.7c1.7-0.5,6.7-2.1,7.4-2.4c1.6-0.6,3.5-2.4,3.7-3.6
		L42.6,20.8z M24.1,39.2l1.1-2.2c-0.4-0.5-0.7-1.1-1.1-1.8c-1.2,2-2.8,4.6-3.6,6.1c0.5,0.7,1.1,1.3,1.7,1.9l1.6-3.4l-0.5-0.5
		L24.1,39.2z M20.8,35c-0.4-0.4-0.8-0.7-1.1-1.1c-1-0.9-1.9-1.8-2.6-3c0-0.1-0.1-0.1-0.1-0.2c-0.9-0.3-1.6-0.5-2-0.6l0,0
		c-0.7-0.3-1.4-0.7-2.1-1.2c-2.2-0.5-3.9-1.9-5.5-3.4c0,0.3,0,0.6,0,0.8C7.4,27.6,8,28.7,9,29.5c1.3,1,2.7,1.6,4.2,2.1
		c0.1,0,0.2,0,0.3,0.1c-1.6,0-3-0.3-4.5-1c0.3,0.6,0.6,1,0.9,1.5c0.7,0.9,1.6,1.7,2.8,1.9c0.8,0.2,1.7,0.2,2.5,0.1c0.3,0,0.7,0,1,0
		c-1.2,0.5-2.4,0.6-3.8,0.6c0.4,0.4,0.7,0.7,1,1c0.8,0.5,1.5,0.9,2.5,0.9c0.6,0,1.3-0.2,1.9-0.4c0.5-0.2,1-0.4,1.6-0.5
		c0.1,0,0.2-0.1,0.3,0c0.2,0.3,0.4,0.2,0.7,0.1c0.2-0.1,0.3-0.2,0.5-0.4C21,35.3,21,35.2,20.8,35z M29.3,38c1.4-1.3,2.6-3.2,3.4-4.9
		c-1.5,0.8-3,1.4-4.4,1.6c-1.5-0.2-2.9-0.8-4.5-1.6c0.8,1.7,2,3.6,3.3,4.9l1.1-2.2L29.3,38z M38.6,41.8c0.5-1.5,1.1-2.9,1.6-4.4
		c-0.4-0.1-0.8-0.2-1.2-0.3c-0.3,1.1-0.6,2.2-1,3.3c-0.5-0.2-1-0.5-1.6-0.7c0,1.5-0.1,2.9-0.1,4.3c0.1,0.1,0.1-0.1,0.2-0.1
		c0.3-0.9,0.6-1.8,0.9-2.7C37.8,41.5,38.2,41.7,38.6,41.8z M45.4,26.3L45.4,26.3c-0.1,0-0.1,0-0.2,0.1l0,0.2c-0.1,0.6-0.5,1.3-1,1.8
		c0.6-0.4,1.3-0.7,1.8-1.1c1-0.7,1.9-1.4,2.6-2.4c0.5-0.7,0.8-1.4,0.8-2.1c-0.4,0.7-0.9,1.4-1.3,1.7C47.2,25.3,46.2,25.9,45.4,26.3z
		"/>
</g>
</svg>
